<svg id="my-svg" width="100%" xmlns="http://www.w3.org/2000/svg" xmlns:xlink="http://www.w3.org/1999/xlink" class="flowchart" style="max-width: 2486.89px; background-color: transparent;" viewBox="0 0 2486.8876953125 189.9921875" role="graphics-document document" aria-roledescription="flowchart-v2"><style>#my-svg{font-family:"trebuchet ms",verdana,arial,sans-serif;font-size:14px;fill:#333;}@keyframes edge-animation-frame{from{stroke-dashoffset:0;}}@keyframes dash{to{stroke-dashoffset:0;}}#my-svg .edge-animation-slow{stroke-dasharray:9,5!important;stroke-dashoffset:900;animation:dash 50s linear infinite;stroke-linecap:round;}#my-svg .edge-animation-fast{stroke-dasharray:9,5!important;stroke-dashoffset:900;animation:dash 20s linear infinite;stroke-linecap:round;}#my-svg .error-icon{fill:hsl(220.5882352941, 100%, 98.3333333333%);}#my-svg .error-text{fill:rgb(8.5000000002, 5.7500000001, 0);stroke:rgb(8.5000000002, 5.7500000001, 0);}#my-svg .edge-thickness-normal{stroke-width:1px;}#my-svg .edge-thickness-thick{stroke-width:3.5px;}#my-svg .edge-pattern-solid{stroke-dasharray:0;}#my-svg .edge-thickness-invisible{stroke-width:0;fill:none;}#my-svg .edge-pattern-dashed{stroke-dasharray:3;}#my-svg .edge-pattern-dotted{stroke-dasharray:2;}#my-svg .marker{fill:#0b0b0b;stroke:#0b0b0b;}#my-svg .marker.cross{stroke:#0b0b0b;}#my-svg svg{font-family:"trebuchet ms",verdana,arial,sans-serif;font-size:14px;}#my-svg p{margin:0;}#my-svg .label{font-family:"trebuchet ms",verdana,arial,sans-serif;color:#333;}#my-svg .cluster-label text{fill:rgb(8.5000000002, 5.7500000001, 0);}#my-svg .cluster-label span{color:rgb(8.5000000002, 5.7500000001, 0);}#my-svg .cluster-label span p{background-color:transparent;}#my-svg .label text,#my-svg span{fill:#333;color:#333;}#my-svg .node rect,#my-svg .node circle,#my-svg .node ellipse,#my-svg .node polygon,#my-svg .node path{fill:#fff4dd;stroke:hsl(40.5882352941, 60%, 83.3333333333%);stroke-width:1px;}#my-svg .rough-node .label text,#my-svg .node .label text,#my-svg .image-shape .label,#my-svg .icon-shape .label{text-anchor:middle;}#my-svg .node .katex path{fill:#000;stroke:#000;stroke-width:1px;}#my-svg .rough-node .label,#my-svg .node .label,#my-svg .image-shape .label,#my-svg .icon-shape .label{text-align:center;}#my-svg .node.clickable{cursor:pointer;}#my-svg .root .anchor path{fill:#0b0b0b!important;stroke-width:0;stroke:#0b0b0b;}#my-svg .arrowheadPath{fill:#0b0b0b;}#my-svg .edgePath .path{stroke:#0b0b0b;stroke-width:2.0px;}#my-svg .flowchart-link{stroke:#0b0b0b;fill:none;}#my-svg .edgeLabel{background-color:hsl(-79.4117647059, 100%, 93.3333333333%);text-align:center;}#my-svg .edgeLabel p{background-color:hsl(-79.4117647059, 100%, 93.3333333333%);}#my-svg .edgeLabel rect{opacity:0.5;background-color:hsl(-79.4117647059, 100%, 93.3333333333%);fill:hsl(-79.4117647059, 100%, 93.3333333333%);}#my-svg .labelBkg{background-color:rgba(243.9999999999, 220.9999999998, 255, 0.5);}#my-svg .cluster rect{fill:hsl(220.5882352941, 100%, 98.3333333333%);stroke:hsl(220.5882352941, 60%, 88.3333333333%);stroke-width:1px;}#my-svg .cluster text{fill:rgb(8.5000000002, 5.7500000001, 0);}#my-svg .cluster span{color:rgb(8.5000000002, 5.7500000001, 0);}#my-svg div.mermaidTooltip{position:absolute;text-align:center;max-width:200px;padding:2px;font-family:"trebuchet ms",verdana,arial,sans-serif;font-size:12px;background:hsl(220.5882352941, 100%, 98.3333333333%);border:1px solid hsl(220.5882352941, 60%, 88.3333333333%);border-radius:2px;pointer-events:none;z-index:100;}#my-svg .flowchartTitleText{text-anchor:middle;font-size:18px;fill:#333;}#my-svg rect.text{fill:none;stroke-width:0;}#my-svg .icon-shape,#my-svg .image-shape{background-color:hsl(-79.4117647059, 100%, 93.3333333333%);text-align:center;}#my-svg .icon-shape p,#my-svg .image-shape p{background-color:hsl(-79.4117647059, 100%, 93.3333333333%);padding:2px;}#my-svg .icon-shape rect,#my-svg .image-shape rect{opacity:0.5;background-color:hsl(-79.4117647059, 100%, 93.3333333333%);fill:hsl(-79.4117647059, 100%, 93.3333333333%);}#my-svg .label-icon{display:inline-block;height:1em;overflow:visible;vertical-align:-0.125em;}#my-svg .node .label-icon path{fill:currentColor;stroke:revert;stroke-width:revert;}#my-svg :root{--mermaid-font-family:"trebuchet ms",verdana,arial,sans-serif;}#my-svg .gpuNode&gt;*{fill:#3b82f6!important;stroke:#1e40af!important;color:#ffffff!important;stroke-width:2px!important;}#my-svg .gpuNode span{fill:#3b82f6!important;stroke:#1e40af!important;color:#ffffff!important;stroke-width:2px!important;}#my-svg .gpuNode tspan{fill:#ffffff!important;}#my-svg .cpuNode&gt;*{fill:#10b981!important;stroke:#047857!important;color:#ffffff!important;stroke-width:2px!important;}#my-svg .cpuNode span{fill:#10b981!important;stroke:#047857!important;color:#ffffff!important;stroke-width:2px!important;}#my-svg .cpuNode tspan{fill:#ffffff!important;}#my-svg .condNode&gt;*{fill:#f59e0b!important;stroke:#b45309!important;color:#ffffff!important;stroke-width:2px!important;}#my-svg .condNode span{fill:#f59e0b!important;stroke:#b45309!important;color:#ffffff!important;stroke-width:2px!important;}#my-svg .condNode tspan{fill:#ffffff!important;}#my-svg .endNode&gt;*{fill:#6b7280!important;stroke:#374151!important;color:#ffffff!important;stroke-width:2px!important;}#my-svg .endNode span{fill:#6b7280!important;stroke:#374151!important;color:#ffffff!important;stroke-width:2px!important;}#my-svg .endNode tspan{fill:#ffffff!important;}#my-svg .startNode&gt;*{fill:#374151!important;stroke:#111827!important;color:#ffffff!important;}#my-svg .startNode span{fill:#374151!important;stroke:#111827!important;color:#ffffff!important;}#my-svg .startNode tspan{fill:#ffffff!important;}#my-svg .extractionTool&gt;*{fill:#60a5fa!important;stroke:#2563eb!important;color:#ffffff!important;stroke-width:1px!important;}#my-svg .extractionTool span{fill:#60a5fa!important;stroke:#2563eb!important;color:#ffffff!important;stroke-width:1px!important;}#my-svg .extractionTool tspan{fill:#ffffff!important;}</style><g><marker id="my-svg_flowchart-v2-pointEnd" class="marker flowchart-v2" viewBox="0 0 10 10" refX="5" refY="5" markerUnits="userSpaceOnUse" markerWidth="8" markerHeight="8" orient="auto"><path d="M 0 0 L 10 5 L 0 10 z" class="arrowMarkerPath" style="stroke-width: 1; stroke-dasharray: 1, 0;"/></marker><marker id="my-svg_flowchart-v2-pointStart" class="marker flowchart-v2" viewBox="0 0 10 10" refX="4.5" refY="5" markerUnits="userSpaceOnUse" markerWidth="8" markerHeight="8" orient="auto"><path d="M 0 5 L 10 10 L 10 0 z" class="arrowMarkerPath" style="stroke-width: 1; stroke-dasharray: 1, 0;"/></marker><marker id="my-svg_flowchart-v2-circleEnd" class="marker flowchart-v2" viewBox="0 0 10 10" refX="11" refY="5" markerUnits="userSpaceOnUse" markerWidth="11" markerHeight="11" orient="auto"><circle cx="5" cy="5" r="5" class="arrowMarkerPath" style="stroke-width: 1; stroke-dasharray: 1, 0;"/></marker><marker id="my-svg_flowchart-v2-circleStart" class="marker flowchart-v2" viewBox="0 0 10 10" refX="-1" refY="5" markerUnits="userSpaceOnUse" markerWidth="11" markerHeight="11" orient="auto"><circle cx="5" cy="5" r="5" class="arrowMarkerPath" style="stroke-width: 1; stroke-dasharray: 1, 0;"/></marker><marker id="my-svg_flowchart-v2-crossEnd" class="marker cross flowchart-v2" viewBox="0 0 11 11" refX="12" refY="5.2" markerUnits="userSpaceOnUse" markerWidth="11" markerHeight="11" orient="auto"><path d="M 1,1 l 9,9 M 10,1 l -9,9" class="arrowMarkerPath" style="stroke-width: 2; stroke-dasharray: 1, 0;"/></marker><marker id="my-svg_flowchart-v2-crossStart" class="marker cross flowchart-v2" viewBox="0 0 11 11" refX="-1" refY="5.2" markerUnits="userSpaceOnUse" markerWidth="11" markerHeight="11" orient="auto"><path d="M 1,1 l 9,9 M 10,1 l -9,9" class="arrowMarkerPath" style="stroke-width: 2; stroke-dasharray: 1, 0;"/></marker><g class="root"><g class="clusters"/><g class="edgePaths"><path d="M23,89.492L27.167,89.492C31.333,89.492,39.667,89.492,47.333,89.492C55,89.492,62,89.492,65.5,89.492L69,89.492" id="L_START_load_case_0" class="edge-thickness-normal edge-pattern-solid edge-thickness-normal edge-pattern-solid flowchart-link" style=";" data-edge="true" data-et="edge" data-id="L_START_load_case_0" data-points="W3sieCI6MjMsInkiOjg5LjQ5MjE4NzV9LHsieCI6NDgsInkiOjg5LjQ5MjE4NzV9LHsieCI6NzMsInkiOjg5LjQ5MjE4NzV9XQ==" marker-end="url(#my-svg_flowchart-v2-pointEnd)"/><path d="M1060.641,89.492L1064.807,89.492C1068.974,89.492,1077.307,89.492,1084.974,89.492C1092.641,89.492,1099.641,89.492,1103.141,89.492L1106.641,89.492" id="L_severity_scoring_check_contradictions_0" class="edge-thickness-normal edge-pattern-solid edge-thickness-normal edge-pattern-solid flowchart-link" style=";" data-edge="true" data-et="edge" data-id="L_severity_scoring_check_contradictions_0" data-points="W3sieCI6MTA2MC42NDA2MjUsInkiOjg5LjQ5MjE4NzV9LHsieCI6MTA4NS42NDA2MjUsInkiOjg5LjQ5MjE4NzV9LHsieCI6MTExMC42NDA2MjUsInkiOjg5LjQ5MjE4NzV9XQ==" marker-end="url(#my-svg_flowchart-v2-pointEnd)"/><path d="M1261.625,89.492L1265.792,89.492C1269.958,89.492,1278.292,89.492,1285.958,89.492C1293.625,89.492,1300.625,89.492,1304.125,89.492L1307.625,89.492" id="L_check_contradictions_route_0" class="edge-thickness-normal edge-pattern-solid edge-thickness-normal edge-pattern-solid flowchart-link" style=";" data-edge="true" data-et="edge" data-id="L_check_contradictions_route_0" data-points="W3sieCI6MTI2MS42MjUsInkiOjg5LjQ5MjE4NzV9LHsieCI6MTI4Ni42MjUsInkiOjg5LjQ5MjE4NzV9LHsieCI6MTMxMS42MjUsInkiOjg5LjQ5MjE4NzV9XQ==" marker-end="url(#my-svg_flowchart-v2-pointEnd)"/><path d="M1457.356,106.746L1475.194,111.537C1493.031,116.328,1528.707,125.91,1560.841,130.701C1592.974,135.492,1621.565,135.492,1635.861,135.492L1650.156,135.492" id="L_route_contradiction_resolution_0" class="edge-thickness-normal edge-pattern-solid edge-thickness-normal edge-pattern-solid flowchart-link" style=";" data-edge="true" data-et="edge" data-id="L_route_contradiction_resolution_0" data-points="W3sieCI6MTQ1Ny4zNTU2NTMzMTcxNTIsInkiOjEwNi43NDU5MDkxODI4NDc5fSx7IngiOjE1NjQuMzgyODEyNSwieSI6MTM1LjQ5MjE4NzV9LHsieCI6MTY1NC4xNTYyNSwieSI6MTM1LjQ5MjE4NzV9XQ==" marker-end="url(#my-svg_flowchart-v2-pointEnd)"/><path d="M1457.356,72.238L1475.194,67.447C1493.031,62.656,1528.707,53.074,1573.752,48.283C1618.797,43.492,1673.211,43.492,1716.829,43.492C1760.448,43.492,1793.271,43.492,1813.257,45.351C1833.244,47.211,1840.395,50.929,1843.97,52.789L1847.545,54.648" id="L_route_treatment_selection_0" class="edge-thickness-normal edge-pattern-solid edge-thickness-normal edge-pattern-solid flowchart-link" style=";" data-edge="true" data-et="edge" data-id="L_route_treatment_selection_0" data-points="W3sieCI6MTQ1Ny4zNTU2NTMzMTcxNTIsInkiOjcyLjIzODQ2NTgxNzE1MjF9LHsieCI6MTU2NC4zODI4MTI1LCJ5Ijo0My40OTIxODc1fSx7IngiOjE3MjcuNjI1LCJ5Ijo0My40OTIxODc1fSx7IngiOjE4MjYuMDkzNzUsInkiOjQzLjQ5MjE4NzV9LHsieCI6MTg1MS4wOTM3NSwieSI6NTYuNDkzNDI0MDMwNjQ4Mjl9XQ==" marker-end="url(#my-svg_flowchart-v2-pointEnd)"/><path d="M1801.094,135.492L1805.26,135.492C1809.427,135.492,1817.76,135.492,1825.502,133.633C1833.244,131.774,1840.395,128.055,1843.97,126.196L1847.545,124.337" id="L_contradiction_resolution_treatment_selection_0" class="edge-thickness-normal edge-pattern-solid edge-thickness-normal edge-pattern-solid flowchart-link" style=";" data-edge="true" data-et="edge" data-id="L_contradiction_resolution_treatment_selection_0" data-points="W3sieCI6MTgwMS4wOTM3NSwieSI6MTM1LjQ5MjE4NzV9LHsieCI6MTgyNi4wOTM3NSwieSI6MTM1LjQ5MjE4NzV9LHsieCI6MTg1MS4wOTM3NSwieSI6MTIyLjQ5MDk1MDk2OTM1MTd9XQ==" marker-end="url(#my-svg_flowchart-v2-pointEnd)"/><path d="M1978,89.492L1982.167,89.492C1986.333,89.492,1994.667,89.492,2002.333,89.492C2010,89.492,2017,89.492,2020.5,89.492L2024,89.492" id="L_treatment_selection_monitoring_plan_0" class="edge-thickness-normal edge-pattern-solid edge-thickness-normal edge-pattern-solid flowchart-link" style=";" data-edge="true" data-et="edge" data-id="L_treatment_selection_monitoring_plan_0" data-points="W3sieCI6MTk3OCwieSI6ODkuNDkyMTg3NX0seyJ4IjoyMDAzLCJ5Ijo4OS40OTIxODc1fSx7IngiOjIwMjgsInkiOjg5LjQ5MjE4NzV9XQ==" marker-end="url(#my-svg_flowchart-v2-pointEnd)"/><path d="M2154.266,89.492L2158.432,89.492C2162.599,89.492,2170.932,89.492,2178.599,89.492C2186.266,89.492,2193.266,89.492,2196.766,89.492L2200.266,89.492" id="L_monitoring_plan_output_assembly_0" class="edge-thickness-normal edge-pattern-solid edge-thickness-normal edge-pattern-solid flowchart-link" style=";" data-edge="true" data-et="edge" data-id="L_monitoring_plan_output_assembly_0" data-points="W3sieCI6MjE1NC4yNjU2MjUsInkiOjg5LjQ5MjE4NzV9LHsieCI6MjE3OS4yNjU2MjUsInkiOjg5LjQ5MjE4NzV9LHsieCI6MjIwNC4yNjU2MjUsInkiOjg5LjQ5MjE4NzV9XQ==" marker-end="url(#my-svg_flowchart-v2-pointEnd)"/><path d="M2379.875,89.492L2384.042,89.492C2388.208,89.492,2396.542,89.492,2404.292,89.562C2412.042,89.633,2419.209,89.773,2422.792,89.844L2426.376,89.914" id="L_output_assembly_END_node_0" class="edge-thickness-normal edge-pattern-solid edge-thickness-normal edge-pattern-solid flowchart-link" style=";" data-edge="true" data-et="edge" data-id="L_output_assembly_END_node_0" data-points="W3sieCI6MjM3OS44NzUsInkiOjg5LjQ5MjE4NzV9LHsieCI6MjQwNC44NzUsInkiOjg5LjQ5MjE4NzV9LHsieCI6MjQzMC4zNzQ5OTk5OTk5OTUsInkiOjg5Ljk5MjE4NzV9XQ==" marker-end="url(#my-svg_flowchart-v2-pointEnd)"/><path d="M196.016,89.492L200.182,89.492C204.349,89.492,212.682,89.492,220.349,89.492C228.016,89.492,235.016,89.492,238.516,89.492L242.016,89.492" id="L_load_case_parallel_extraction_0" class="edge-thickness-normal edge-pattern-solid edge-thickness-normal edge-pattern-solid flowchart-link" style=";" data-edge="true" data-et="edge" data-id="L_load_case_parallel_extraction_0" data-points="W3sieCI6MTk2LjAxNTYyNSwieSI6ODkuNDkyMTg3NX0seyJ4IjoyMjEuMDE1NjI1LCJ5Ijo4OS40OTIxODc1fSx7IngiOjI0Ni4wMTU2MjUsInkiOjg5LjQ5MjE4NzV9XQ==" marker-end="url(#my-svg_flowchart-v2-pointEnd)"/><path d="M850.375,89.492L854.542,89.492C858.708,89.492,867.042,89.492,874.708,89.492C882.375,89.492,889.375,89.492,892.875,89.492L896.375,89.492" id="L_parallel_extraction_severity_scoring_0" class="edge-thickness-normal edge-pattern-solid edge-thickness-normal edge-pattern-solid flowchart-link" style=";" data-edge="true" data-et="edge" data-id="L_parallel_extraction_severity_scoring_0" data-points="W3sieCI6ODUwLjM3NSwieSI6ODkuNDkyMTg3NX0seyJ4Ijo4NzUuMzc1LCJ5Ijo4OS40OTIxODc1fSx7IngiOjkwMC4zNzUsInkiOjg5LjQ5MjE4NzV9XQ==" marker-end="url(#my-svg_flowchart-v2-pointEnd)"/></g><g class="edgeLabels"><g class="edgeLabel"><g class="label" data-id="L_START_load_case_0" transform="translate(0, 0)"><foreignObject width="0" height="0"><div xmlns="http://www.w3.org/1999/xhtml" class="labelBkg" style="display: table-cell; white-space: nowrap; line-height: 1.5; max-width: 200px; text-align: center;"><span class="edgeLabel"></span></div></foreignObject></g></g><g class="edgeLabel"><g class="label" data-id="L_severity_scoring_check_contradictions_0" transform="translate(0, 0)"><foreignObject width="0" height="0"><div xmlns="http://www.w3.org/1999/xhtml" class="labelBkg" style="display: table-cell; white-space: nowrap; line-height: 1.5; max-width: 200px; text-align: center;"><span class="edgeLabel"></span></div></foreignObject></g></g><g class="edgeLabel"><g class="label" data-id="L_check_contradictions_route_0" transform="translate(0, 0)"><foreignObject width="0" height="0"><div xmlns="http://www.w3.org/1999/xhtml" class="labelBkg" style="display: table-cell; white-space: nowrap; line-height: 1.5; max-width: 200px; text-align: center;"><span class="edgeLabel"></span></div></foreignObject></g></g><g class="edgeLabel" transform="translate(1564.3828125, 135.4921875)"><g class="label" data-id="L_route_contradiction_resolution_0" transform="translate(-64.7734375, -10.5)"><foreignObject width="129.546875" height="21"><div xmlns="http://www.w3.org/1999/xhtml" class="labelBkg" style="display: table-cell; white-space: nowrap; line-height: 1.5; max-width: 200px; text-align: center;"><span class="edgeLabel"><p>contradictions found</p></span></div></foreignObject></g></g><g class="edgeLabel" transform="translate(1727.625, 43.4921875)"><g class="label" data-id="L_route_treatment_selection_0" transform="translate(-54.4609375, -10.5)"><foreignObject width="108.921875" height="21"><div xmlns="http://www.w3.org/1999/xhtml" class="labelBkg" style="display: table-cell; white-space: nowrap; line-height: 1.5; max-width: 200px; text-align: center;"><span class="edgeLabel"><p>no contradictions</p></span></div></foreignObject></g></g><g class="edgeLabel"><g class="label" data-id="L_contradiction_resolution_treatment_selection_0" transform="translate(0, 0)"><foreignObject width="0" height="0"><div xmlns="http://www.w3.org/1999/xhtml" class="labelBkg" style="display: table-cell; white-space: nowrap; line-height: 1.5; max-width: 200px; text-align: center;"><span class="edgeLabel"></span></div></foreignObject></g></g><g class="edgeLabel"><g class="label" data-id="L_treatment_selection_monitoring_plan_0" transform="translate(0, 0)"><foreignObject width="0" height="0"><div xmlns="http://www.w3.org/1999/xhtml" class="labelBkg" style="display: table-cell; white-space: nowrap; line-height: 1.5; max-width: 200px; text-align: center;"><span class="edgeLabel"></span></div></foreignObject></g></g><g class="edgeLabel"><g class="label" data-id="L_monitoring_plan_output_assembly_0" transform="translate(0, 0)"><foreignObject width="0" height="0"><div xmlns="http://www.w3.org/1999/xhtml" class="labelBkg" style="display: table-cell; white-space: nowrap; line-height: 1.5; max-width: 200px; text-align: center;"><span class="edgeLabel"></span></div></foreignObject></g></g><g class="edgeLabel"><g class="label" data-id="L_output_assembly_END_node_0" transform="translate(0, 0)"><foreignObject width="0" height="0"><div xmlns="http://www.w3.org/1999/xhtml" class="labelBkg" style="display: table-cell; white-space: nowrap; line-height: 1.5; max-width: 200px; text-align: center;"><span class="edgeLabel"></span></div></foreignObject></g></g><g class="edgeLabel"><g class="label" data-id="L_load_case_parallel_extraction_0" transform="translate(0, 0)"><foreignObject width="0" height="0"><div xmlns="http://www.w3.org/1999/xhtml" class="labelBkg" style="display: table-cell; white-space: nowrap; line-height: 1.5; max-width: 200px; text-align: center;"><span class="edgeLabel"></span></div></foreignObject></g></g><g class="edgeLabel"><g class="label" data-id="L_parallel_extraction_severity_scoring_0" transform="translate(0, 0)"><foreignObject width="0" height="0"><div xmlns="http://www.w3.org/1999/xhtml" class="labelBkg" style="display: table-cell; white-space: nowrap; line-height: 1.5; max-width: 200px; text-align: center;"><span class="edgeLabel"></span></div></foreignObject></g></g></g><g class="nodes"><g class="root" transform="translate(238.015625, 7.9921875)"><g class="clusters"><g class="cluster gpuNode" id="parallel_extraction" data-look="classic"><rect style="fill:#dbeafe !important;stroke:#3b82f6 !important;stroke-width:2px !important" x="8" y="8" width="604.359375" height="147"/><g class="cluster-label" transform="translate(252.15625, 8)"><foreignObject width="116.046875" height="21"><div xmlns="http://www.w3.org/1999/xhtml" style="display: table-cell; white-space: nowrap; line-height: 1.5; max-width: 200px; text-align: center;"><span class="nodeLabel" style="color:#1e3a5f !important"><p>Parallel Extraction</p></span></div></foreignObject></g></g></g><g class="edgePaths"/><g class="edgeLabels"/><g class="nodes"><g class="node default extractionTool" id="flowchart-ehr-5" transform="translate(113.3125, 81.5)"><rect class="basic label-container" style="fill:#60a5fa !important;stroke:#2563eb !important;stroke-width:1px !important" x="-70.3125" y="-36" width="140.625" height="72"/><g class="label" style="color:#ffffff !important" transform="translate(-40.3125, -21)"><rect/><foreignObject width="80.625" height="42"><div style="color: rgb(255, 255, 255) !important; display: table-cell; white-space: nowrap; line-height: 1.5; max-width: 200px; text-align: center;" xmlns="http://www.w3.org/1999/xhtml"><span style="color:#ffffff !important" class="nodeLabel"><p>EHR QA<br />(3 GPU calls)</p></span></div></foreignObject></g></g><g class="node default extractionTool" id="flowchart-lab-6" transform="translate(303.9375, 81.5)"><rect class="basic label-container" style="fill:#60a5fa !important;stroke:#2563eb !important;stroke-width:1px !important" x="-70.3125" y="-36" width="140.625" height="72"/><g class="label" style="color:#ffffff !important" transform="translate(-40.3125, -21)"><rect/><foreignObject width="80.625" height="42"><div style="color: rgb(255, 255, 255) !important; display: table-cell; white-space: nowrap; line-height: 1.5; max-width: 200px; text-align: center;" xmlns="http://www.w3.org/1999/xhtml"><span style="color:#ffffff !important" class="nodeLabel"><p>Lab Analysis<br />(2 GPU calls)</p></span></div></foreignObject></g></g><g class="node default extractionTool" id="flowchart-cxr-7" transform="translate(500.8046875, 81.5)"><rect class="basic label-container" style="fill:#60a5fa !important;stroke:#2563eb !important;stroke-width:1px !important" x="-76.5546875" y="-36" width="153.109375" height="72"/><g class="label" style="color:#ffffff !important" transform="translate(-46.5546875, -21)"><rect/><foreignObject width="93.109375" height="42"><div style="color: rgb(255, 255, 255) !important; display: table-cell; white-space: nowrap; line-height: 1.5; max-width: 200px; text-align: center;" xmlns="http://www.w3.org/1999/xhtml"><span style="color:#ffffff !important" class="nodeLabel"><p>CXR Analysis<br />(1-3 GPU calls)</p></span></div></foreignObject></g></g></g></g><g class="node default startNode" id="flowchart-START-0" transform="translate(15.5, 89.4921875)"><circle class="basic label-container" style="fill:#374151 !important;stroke:#111827 !important" r="7.5" cx="0" cy="0"/><g class="label" style="color:#ffffff !important" transform="translate(0, 0)"><rect/><foreignObject width="0" height="0"><div style="color: rgb(255, 255, 255) !important; display: table-cell; white-space: nowrap; line-height: 1.5; max-width: 200px; text-align: center;" xmlns="http://www.w3.org/1999/xhtml"><span style="color:#ffffff !important" class="nodeLabel"></span></div></foreignObject></g></g><g class="node default cpuNode" id="flowchart-load_case-1" transform="translate(134.5078125, 89.4921875)"><rect class="basic label-container" style="fill:#10b981 !important;stroke:#047857 !important;stroke-width:2px !important" x="-61.5078125" y="-25.5" width="123.015625" height="51"/><g class="label" style="color:#ffffff !important" transform="translate(-31.5078125, -10.5)"><rect/><foreignObject width="63.015625" height="21"><div style="color: rgb(255, 255, 255) !important; display: table-cell; white-space: nowrap; line-height: 1.5; max-width: 200px; text-align: center;" xmlns="http://www.w3.org/1999/xhtml"><span style="color:#ffffff !important" class="nodeLabel"><p>Load Case</p></span></div></foreignObject></g></g><g class="node default cpuNode" id="flowchart-severity_scoring-9" transform="translate(980.5078125, 89.4921875)"><rect class="basic label-container" style="fill:#10b981 !important;stroke:#047857 !important;stroke-width:2px !important" x="-80.1328125" y="-36" width="160.265625" height="72"/><g class="label" style="color:#ffffff !important" transform="translate(-50.1328125, -21)"><rect/><foreignObject width="100.265625" height="42"><div style="color: rgb(255, 255, 255) !important; display: table-cell; white-space: nowrap; line-height: 1.5; max-width: 200px; text-align: center;" xmlns="http://www.w3.org/1999/xhtml"><span style="color:#ffffff !important" class="nodeLabel"><p>Severity Scoring<br />CURB-65</p></span></div></foreignObject></g></g><g class="node default cpuNode" id="flowchart-check_contradictions-11" transform="translate(1186.1328125, 89.4921875)"><rect class="basic label-container" style="fill:#10b981 !important;stroke:#047857 !important;stroke-width:2px !important" x="-75.4921875" y="-46.5" width="150.984375" height="93"/><g class="label" style="color:#ffffff !important" transform="translate(-45.4921875, -31.5)"><rect/><foreignObject width="90.984375" height="63"><div style="color: rgb(255, 255, 255) !important; display: table-cell; white-space: nowrap; line-height: 1.5; max-width: 200px; text-align: center;" xmlns="http://www.w3.org/1999/xhtml"><span style="color:#ffffff !important" class="nodeLabel"><p>Check<br />Contradictions<br />CR-1 to CR-11</p></span></div></foreignObject></g></g><g class="node default condNode" id="flowchart-route-13" transform="translate(1393.1171875, 89.4921875)"><polygon points="81.4921875,0 162.984375,-81.4921875 81.4921875,-162.984375 0,-81.4921875" class="label-container" transform="translate(-80.9921875, 81.4921875)" style="fill:#f59e0b !important;stroke:#b45309 !important;stroke-width:2px !important"/><g class="label" style="color:#ffffff !important" transform="translate(-45.4921875, -21)"><rect/><foreignObject width="90.984375" height="42"><div style="color: rgb(255, 255, 255) !important; display: table-cell; white-space: nowrap; line-height: 1.5; max-width: 200px; text-align: center;" xmlns="http://www.w3.org/1999/xhtml"><span style="color:#ffffff !important" class="nodeLabel"><p>Contradictions<br />detected?</p></span></div></foreignObject></g></g><g class="node default gpuNode" id="flowchart-contradiction_resolution-15" transform="translate(1727.625, 135.4921875)"><rect class="basic label-container" style="fill:#3b82f6 !important;stroke:#1e40af !important;stroke-width:2px !important" x="-73.46875" y="-46.5" width="146.9375" height="93"/><g class="label" style="color:#ffffff !important" transform="translate(-43.46875, -31.5)"><rect/><foreignObject width="86.9375" height="63"><div style="color: rgb(255, 255, 255) !important; display: table-cell; white-space: nowrap; line-height: 1.5; max-width: 200px; text-align: center;" xmlns="http://www.w3.org/1999/xhtml"><span style="color:#ffffff !important" class="nodeLabel"><p>Contradiction<br />Resolution<br />Strategies A-E</p></span></div></foreignObject></g></g><g class="node default cpuNode" id="flowchart-treatment_selection-17" transform="translate(1914.546875, 89.4921875)"><rect class="basic label-container" style="fill:#10b981 !important;stroke:#047857 !important;stroke-width:2px !important" x="-63.453125" y="-46.5" width="126.90625" height="93"/><g class="label" style="color:#ffffff !important" transform="translate(-33.453125, -31.5)"><rect/><foreignObject width="66.90625" height="63"><div style="color: rgb(255, 255, 255) !important; display: table-cell; white-space: nowrap; line-height: 1.5; max-width: 200px; text-align: center;" xmlns="http://www.w3.org/1999/xhtml"><span style="color:#ffffff !important" class="nodeLabel"><p>Treatment<br />Selection<br />Antibiotics</p></span></div></foreignObject></g></g><g class="node default cpuNode" id="flowchart-monitoring_plan-21" transform="translate(2091.1328125, 89.4921875)"><rect class="basic label-container" style="fill:#10b981 !important;stroke:#047857 !important;stroke-width:2px !important" x="-63.1328125" y="-36" width="126.265625" height="72"/><g class="label" style="color:#ffffff !important" transform="translate(-33.1328125, -21)"><rect/><foreignObject width="66.265625" height="42"><div style="color: rgb(255, 255, 255) !important; display: table-cell; white-space: nowrap; line-height: 1.5; max-width: 200px; text-align: center;" xmlns="http://www.w3.org/1999/xhtml"><span style="color:#ffffff !important" class="nodeLabel"><p>Monitoring<br />Plan</p></span></div></foreignObject></g></g><g class="node default gpuNode" id="flowchart-output_assembly-23" transform="translate(2292.0703125, 89.4921875)"><rect class="basic label-container" style="fill:#3b82f6 !important;stroke:#1e40af !important;stroke-width:2px !important" x="-87.8046875" y="-46.5" width="175.609375" height="93"/><g class="label" style="color:#ffffff !important" transform="translate(-57.8046875, -31.5)"><rect/><foreignObject width="115.609375" height="63"><div style="color: rgb(255, 255, 255) !important; display: table-cell; white-space: nowrap; line-height: 1.5; max-width: 200px; text-align: center;" xmlns="http://www.w3.org/1999/xhtml"><span style="color:#ffffff !important" class="nodeLabel"><p>Output<br />Assembly<br />Clinician Summary</p></span></div></foreignObject></g></g><g class="node default endNode" id="flowchart-END_node-25" transform="translate(2454.3813762664795, 89.4921875)"><g class="basic label-container outer-path"><path d="M-6.515625 -18 C-3.293005301692092 -18, -0.07038560338418431 -18, 6.515625 -18 C6.515625 -18, 6.515624999999999 -18, 6.515624999999999 -18 C6.9076694767893025 -17.98742789669765, 7.299713953578605 -17.9748557933953, 7.668888959652831 -17.963017069506055 C7.948310455073123 -17.936061613896374, 8.227731950493416 -17.909106158286693, 8.817413910321106 -17.85222024881843 C9.16884949286674 -17.7954028692561, 9.520285075412373 -17.73858548969377, 9.956480316624699 -17.668064825839178 C10.244183550601978 -17.602398440122922, 10.531886784579255 -17.536732054406663, 11.081407510371129 -17.41130753470253 C11.516555214602862 -17.282157980223463, 11.951702918834593 -17.153008425744392, 12.187572924425172 -17.083003446192034 C12.487670949068866 -16.972564599047423, 12.78776897371256 -16.862125751902816, 13.270431087828733 -16.68450163222839 C13.539709185168471 -16.56530020638704, 13.808987282508207 -16.446098780545686, 14.325532304116045 -16.217439622243546 C14.55718709412796 -16.096585466676306, 14.788841884139874 -15.975731311109064, 15.348540936070876 -15.683736674221011 C15.573152139470782 -15.547576042758044, 15.797763342870686 -15.411415411295078, 16.335253221789877 -15.085585888053133 C16.662021981735705 -14.857646146706553, 16.988790741681537 -14.629706405359972, 17.281614548841887 -14.425445193623219 C17.585504668655762 -14.183100909927367, 17.889394788469637 -13.940756626231517, 18.183736115540185 -13.706027250644421 C18.423213654804314 -13.488540085713216, 18.66269119406844 -13.27105292078201, 19.037910910862756 -12.930288301759097 C19.30837303534479 -12.651013952878012, 19.578835159826827 -12.371739603996927, 19.840628947355675 -12.101416024703706 C20.116213774906843 -11.777698405041185, 20.391798602458014 -11.453980785378667, 20.588591684424536 -11.222816433457204 C20.8540763228359 -10.867091204134091, 21.119560961247267 -10.511365974810978, 21.278725582745203 -10.298099882199057 C21.49956506610355 -9.958831132056053, 21.720404549461893 -9.61956238191305, 21.908194734096227 -9.331066229589453 C22.028576683042644 -9.11731588924092, 22.148958631989064 -8.90356554889239, 22.474412514714004 -8.325689224335035 C22.673293939831545 -7.912707689697663, 22.872175364949083 -7.499726155060291, 22.975052214284624 -7.286100176203093 C23.113532974838794 -6.944050020290922, 23.252013735392964 -6.60199986437875, 23.408056596895683 -6.216570979583546 C23.52744959952579 -5.856978278353294, 23.646842602155903 -5.497385577123041, 23.77164635465989 -5.121496559358589 C23.885345546869182 -4.687912261922943, 23.999044739078474 -4.254327964487296, 24.064327419272825 -4.005376811213661 C24.118021750592586 -3.7296677681876353, 24.171716081912344 -3.45395872516161, 24.2848971014601 -2.872798110600833 C24.324818393006197 -2.563176456719983, 24.364739684552294 -2.253554802839133, 24.432449033085568 -1.728414466338275 C24.46067203405071 -1.2888184451098543, 24.48889503501585 -0.8492224238814339, 24.506376891612383 -0.576928396289793 C24.506376891612383 -0.23083802965554306, 24.506376891612383 0.11525233697870685, 24.506376891612383 0.5769283962897886 C24.481781746564057 0.9600176332612242, 24.45718660151573 1.3431068702326598, 24.432449033085568 1.7284144663382628 C24.397414705606295 2.000133791957027, 24.362380378127025 2.271853117575791, 24.284897101460103 2.8727981106008205 C24.196737104621235 3.3254810617464714, 24.10857710778237 3.778164012892122, 24.064327419272825 4.005376811213657 C24.002139384038276 4.242526742027951, 23.93995134880373 4.4796766728422455, 23.771646354659893 5.121496559358577 C23.69508666209803 5.352082155224436, 23.618526969536166 5.582667751090296, 23.408056596895687 6.216570979583534 C23.270041332196016 6.557471351735343, 23.13202606749634 6.898371723887152, 22.975052214284624 7.286100176203088 C22.847449604743865 7.55106972517294, 22.719846995203106 7.816039274142793, 22.474412514714004 8.325689224335031 C22.297756334574927 8.639360160549947, 22.121100154435855 8.953031096764862, 21.90819473409623 9.33106622958945 C21.715463734813223 9.627152800007913, 21.522732735530216 9.923239370426376, 21.27872558274521 10.298099882199049 C21.035913246220357 10.62344629248343, 20.793100909695504 10.948792702767813, 20.58859168442454 11.2228164334572 C20.39125410886947 11.45462037853033, 20.1939165333144 11.686424323603463, 19.840628947355682 12.101416024703695 C19.571338811484967 12.37948019912154, 19.30204867561425 12.657544373539382, 19.03791091086276 12.930288301759093 C18.83017133405175 13.118951888930848, 18.62243175724074 13.307615476102603, 18.183736115540203 13.706027250644409 C17.932574941923427 13.906321602924262, 17.68141376830665 14.106615955204116, 17.281614548841894 14.425445193623217 C17.050795432390657 14.58645461726109, 16.819976315939424 14.747464040898961, 16.335253221789884 15.085585888053126 C15.960613637755877 15.312694605521115, 15.58597405372187 15.539803322989103, 15.348540936070881 15.68373667422101 C15.084914143640283 15.821270602971033, 14.821287351209683 15.958804531721057, 14.325532304116049 16.217439622243543 C13.955691536455454 16.381157159150312, 13.585850768794858 16.544874696057086, 13.270431087828742 16.68450163222839 C13.043066082127108 16.768174056065664, 12.815701076425473 16.85184647990294, 12.187572924425183 17.08300344619203 C11.911550884213638 17.164925338857564, 11.63552884400209 17.246847231523095, 11.08140751037115 17.411307534702527 C10.786355732509339 17.478651177606697, 10.491303954647528 17.545994820510867, 9.956480316624706 17.668064825839174 C9.690980831968844 17.71098872353908, 9.425481347312981 17.753912621238985, 8.817413910321118 17.85222024881843 C8.448862695763474 17.88777394123912, 8.080311481205829 17.923327633659813, 7.668888959652831 17.963017069506055 C7.331766379651189 17.973827934477413, 6.994643799649547 17.98463879944877, 6.5156250000000036 18 C6.515625000000003 18, 6.515625000000002 18, 6.515625 18 C1.491757338869843 18, -3.532110322260314 18, -6.5156249999999964 18 C-6.943576665900423 17.98627642303196, -7.3715283318008495 17.972552846063916, -7.668888959652825 17.963017069506055 C-8.055184799142225 17.92575157445923, -8.441480638631624 17.888486079412406, -8.817413910321111 17.85222024881843 C-9.076140202051308 17.81039138842385, -9.334866493781504 17.76856252802927, -9.9564803166247 17.668064825839174 C-10.242010948801996 17.602894322306213, -10.52754158097929 17.53772381877325, -11.081407510371127 17.41130753470253 C-11.457879438940981 17.299572642444478, -11.834351367510834 17.18783775018642, -12.187572924425162 17.083003446192038 C-12.53755365753178 16.95420730122237, -12.887534390638399 16.825411156252702, -13.270431087828737 16.68450163222839 C-13.686444061271601 16.500345029471628, -14.102457034714467 16.31618842671487, -14.325532304116043 16.217439622243546 C-14.594654296317776 16.077038851292766, -14.863776288519507 15.936638080341986, -15.348540936070874 15.683736674221013 C-15.62385739912347 15.516838216379403, -15.899173862176065 15.349939758537795, -16.335253221789863 15.085585888053139 C-16.704590626745613 14.827952102714582, -17.073928031701364 14.570318317376024, -17.281614548841887 14.42544519362322 C-17.633021578202786 14.145207439041686, -17.984428607563682 13.864969684460151, -18.183736115540185 13.706027250644423 C-18.506344603145173 13.413042757954411, -18.828953090750165 13.120058265264397, -19.03791091086275 12.930288301759106 C-19.285649572087294 12.67447779432241, -19.53338823331184 12.418667286885714, -19.840628947355682 12.101416024703703 C-20.032228695283706 11.876352058452937, -20.22382844321173 11.651288092202174, -20.588591684424536 11.222816433457206 C-20.775540642039868 10.97232186165307, -20.9624895996552 10.721827289848934, -21.278725582745203 10.29809988219906 C-21.49410181055244 9.967224159672085, -21.709478038359677 9.636348437145113, -21.908194734096224 9.33106622958946 C-22.02466434526618 9.124262641130192, -22.141133956436136 8.917459052670926, -22.474412514714 8.325689224335036 C-22.668605176593857 7.922444006884178, -22.862797838473714 7.519198789433319, -22.975052214284624 7.286100176203095 C-23.124875551020406 6.916033637828554, -23.274698887756188 6.545967099454013, -23.408056596895683 6.2165709795835475 C-23.511584942137393 5.904760098717271, -23.6151132873791 5.592949217850994, -23.77164635465989 5.121496559358584 C-23.859689710457342 4.785749085471121, -23.94773306625479 4.450001611583658, -24.06432741927282 4.005376811213663 C-24.118065516043167 3.7294430418487083, -24.171803612813516 3.4535092724837537, -24.2848971014601 2.8727981106008347 C-24.339714350341023 2.447646353170554, -24.39453159922195 2.022494595740273, -24.432449033085565 1.7284144663382852 C-24.458129740877915 1.3284167133782108, -24.483810448670265 0.9284189604181363, -24.506376891612383 0.5769283962897952 C-24.506376891612383 0.23845071021752556, -24.506376891612383 -0.10002697585474407, -24.506376891612383 -0.5769283962897864 C-24.489118444387817 -0.8457426425802532, -24.471859997163254 -1.11455688887072, -24.432449033085568 -1.7284144663382603 C-24.40036026409918 -1.977288621952526, -24.368271495112793 -2.226162777566792, -24.284897101460103 -2.8727981106008262 C-24.225828306954757 -3.1761038861916475, -24.166759512449406 -3.4794096617824684, -24.064327419272825 -4.005376811213655 C-23.95192263744144 -4.434024960877337, -23.839517855610055 -4.862673110541018, -23.771646354659893 -5.121496559358575 C-23.666142362517554 -5.439257773912967, -23.560638370375212 -5.757018988467359, -23.40805659689569 -6.2165709795835244 C-23.300811310839375 -6.481468909589171, -23.193566024783063 -6.746366839594818, -22.975052214284624 -7.286100176203086 C-22.81480239958418 -7.618862345225308, -22.65455258488374 -7.951624514247529, -22.474412514714004 -8.32568922433503 C-22.30041644876879 -8.634636858432971, -22.12642038282358 -8.943584492530913, -21.908194734096227 -9.331066229589455 C-21.750642557830897 -9.573108681016103, -21.593090381565567 -9.815151132442754, -21.278725582745206 -10.298099882199054 C-21.1261021015231 -10.502601442751502, -20.97347862030099 -10.70710300330395, -20.588591684424543 -11.2228164334572 C-20.421985559552645 -11.418521467888798, -20.255379434680748 -11.614226502320394, -19.840628947355686 -12.101416024703695 C-19.663190395983136 -12.284635896971848, -19.485751844610586 -12.46785576924, -19.037910910862763 -12.930288301759086 C-18.735474397836857 -13.20495314085758, -18.43303788481095 -13.479617979956073, -18.183736115540206 -13.706027250644407 C-17.956345940913128 -13.887364863802826, -17.72895576628605 -14.068702476961244, -17.281614548841894 -14.425445193623215 C-17.0497014224562 -14.587217751232442, -16.8177882960705 -14.748990308841668, -16.335253221789888 -15.085585888053124 C-16.060270301072958 -15.25228215057074, -15.78528738035603 -15.418978413088356, -15.348540936070883 -15.683736674221008 C-15.049783198180874 -15.839598394714761, -14.751025460290867 -15.995460115208514, -14.325532304116052 -16.217439622243543 C-13.971313171621308 -16.37424192466173, -13.617094039126561 -16.531044227079924, -13.270431087828744 -16.684501632228386 C-12.942240771378174 -16.805278702440226, -12.614050454927602 -16.926055772652067, -12.187572924425186 -17.08300344619203 C-11.886144361638506 -17.172465861396304, -11.584715798851823 -17.261928276600578, -11.08140751037115 -17.411307534702523 C-10.701044285876359 -17.498122958591456, -10.320681061381567 -17.584938382480388, -9.95648031662471 -17.668064825839174 C-9.66625920705753 -17.714985524135678, -9.376038097490351 -17.76190622243218, -8.81741391032112 -17.85222024881843 C-8.490509606940055 -17.883756313805655, -8.163605303558988 -17.91529237879288, -7.668888959652834 -17.963017069506055 C-7.381789780913692 -17.972223781363567, -7.094690602174551 -17.981430493221083, -6.515625000000005 -18 C-6.5156250000000036 -18, -6.515625000000002 -18, -6.515625 -18" stroke="none" stroke-width="0" fill="#6b7280" style="fill:#6b7280 !important;stroke:#374151 !important;stroke-width:2px !important"/><path d="M-6.515625 -18 C-1.5716451689136663 -18, 3.3723346621726673 -18, 6.515625 -18 M-6.515625 -18 C-1.3563809841658765 -18, 3.802863031668247 -18, 6.515625 -18 M6.515625 -18 C6.515625 -18, 6.515624999999999 -18, 6.515624999999999 -18 M6.515625 -18 C6.515625 -18, 6.515625 -18, 6.515624999999999 -18 M6.515624999999999 -18 C6.915543396021386 -17.98717539543353, 7.315461792042774 -17.97435079086706, 7.668888959652831 -17.963017069506055 M6.515624999999999 -18 C6.797584651089093 -17.99095810279074, 7.0795443021781885 -17.98191620558148, 7.668888959652831 -17.963017069506055 M7.668888959652831 -17.963017069506055 C8.078579895167097 -17.92349467768243, 8.488270830681362 -17.883972285858807, 8.817413910321106 -17.85222024881843 M7.668888959652831 -17.963017069506055 C8.11953461189227 -17.919543825415207, 8.570180264131709 -17.87607058132436, 8.817413910321106 -17.85222024881843 M8.817413910321106 -17.85222024881843 C9.263440469304356 -17.780110133749645, 9.709467028287605 -17.708000018680856, 9.956480316624699 -17.668064825839178 M8.817413910321106 -17.85222024881843 C9.154178198982894 -17.797774810273655, 9.490942487644682 -17.743329371728883, 9.956480316624699 -17.668064825839178 M9.956480316624699 -17.668064825839178 C10.284594230776733 -17.593174966077367, 10.612708144928767 -17.518285106315552, 11.081407510371129 -17.41130753470253 M9.956480316624699 -17.668064825839178 C10.225930757402859 -17.60656452106001, 10.495381198181017 -17.54506421628085, 11.081407510371129 -17.41130753470253 M11.081407510371129 -17.41130753470253 C11.413466836062453 -17.312754069852314, 11.745526161753777 -17.214200605002098, 12.187572924425172 -17.083003446192034 M11.081407510371129 -17.41130753470253 C11.303289499550788 -17.345454124996337, 11.525171488730447 -17.27960071529014, 12.187572924425172 -17.083003446192034 M12.187572924425172 -17.083003446192034 C12.53972986423258 -16.953406437039842, 12.891886804039988 -16.82380942788765, 13.270431087828733 -16.68450163222839 M12.187572924425172 -17.083003446192034 C12.555271948329535 -16.947686806422713, 12.922970972233896 -16.812370166653388, 13.270431087828733 -16.68450163222839 M13.270431087828733 -16.68450163222839 C13.536141972632983 -16.5668793055589, 13.801852857437233 -16.449256978889405, 14.325532304116045 -16.217439622243546 M13.270431087828733 -16.68450163222839 C13.570551706927652 -16.55164713691515, 13.870672326026574 -16.418792641601907, 14.325532304116045 -16.217439622243546 M14.325532304116045 -16.217439622243546 C14.684115448686018 -16.030367025404857, 15.042698593255992 -15.843294428566168, 15.348540936070876 -15.683736674221011 M14.325532304116045 -16.217439622243546 C14.691375696214354 -16.026579358919733, 15.057219088312666 -15.835719095595922, 15.348540936070876 -15.683736674221011 M15.348540936070876 -15.683736674221011 C15.595599137527355 -15.533968540622947, 15.842657338983834 -15.384200407024883, 16.335253221789877 -15.085585888053133 M15.348540936070876 -15.683736674221011 C15.680111876657664 -15.48273642151017, 16.011682817244452 -15.28173616879933, 16.335253221789877 -15.085585888053133 M16.335253221789877 -15.085585888053133 C16.672662039493204 -14.850224103015599, 17.01007085719653 -14.614862317978064, 17.281614548841887 -14.425445193623219 M16.335253221789877 -15.085585888053133 C16.557945488885462 -14.930245402720123, 16.780637755981047 -14.774904917387113, 17.281614548841887 -14.425445193623219 M17.281614548841887 -14.425445193623219 C17.596852475028353 -14.174051336323034, 17.912090401214822 -13.92265747902285, 18.183736115540185 -13.706027250644421 M17.281614548841887 -14.425445193623219 C17.597048383821413 -14.173895104273923, 17.91248221880094 -13.922345014924627, 18.183736115540185 -13.706027250644421 M18.183736115540185 -13.706027250644421 C18.3667199512741 -13.539846172517871, 18.549703787008013 -13.37366509439132, 19.037910910862756 -12.930288301759097 M18.183736115540185 -13.706027250644421 C18.49274036650663 -13.425397765721158, 18.801744617473073 -13.144768280797896, 19.037910910862756 -12.930288301759097 M19.037910910862756 -12.930288301759097 C19.229086647905 -12.732883657443068, 19.42026238494724 -12.53547901312704, 19.840628947355675 -12.101416024703706 M19.037910910862756 -12.930288301759097 C19.202452143188385 -12.760385970296475, 19.366993375514014 -12.590483638833856, 19.840628947355675 -12.101416024703706 M19.840628947355675 -12.101416024703706 C20.117322434642208 -11.7763961102315, 20.394015921928744 -11.451376195759293, 20.588591684424536 -11.222816433457204 M19.840628947355675 -12.101416024703706 C20.01012694592051 -11.90231403088011, 20.179624944485344 -11.703212037056515, 20.588591684424536 -11.222816433457204 M20.588591684424536 -11.222816433457204 C20.776284364047697 -10.971325341917048, 20.963977043670855 -10.71983425037689, 21.278725582745203 -10.298099882199057 M20.588591684424536 -11.222816433457204 C20.860064964101035 -10.859066970415252, 21.131538243777534 -10.495317507373302, 21.278725582745203 -10.298099882199057 M21.278725582745203 -10.298099882199057 C21.46276602265157 -10.015364344725057, 21.64680646255794 -9.732628807251057, 21.908194734096227 -9.331066229589453 M21.278725582745203 -10.298099882199057 C21.490313783545655 -9.97304358638218, 21.701901984346108 -9.647987290565306, 21.908194734096227 -9.331066229589453 M21.908194734096227 -9.331066229589453 C22.035902149572266 -9.10430878163366, 22.1636095650483 -8.877551333677868, 22.474412514714004 -8.325689224335035 M21.908194734096227 -9.331066229589453 C22.077622750547857 -9.030229629932544, 22.247050766999482 -8.729393030275634, 22.474412514714004 -8.325689224335035 M22.474412514714004 -8.325689224335035 C22.671610990559763 -7.916202369869861, 22.868809466405523 -7.506715515404687, 22.975052214284624 -7.286100176203093 M22.474412514714004 -8.325689224335035 C22.581655822221652 -8.102996201656216, 22.6888991297293 -7.8803031789774, 22.975052214284624 -7.286100176203093 M22.975052214284624 -7.286100176203093 C23.079559418528106 -7.027965361212347, 23.184066622771592 -6.769830546221601, 23.408056596895683 -6.216570979583546 M22.975052214284624 -7.286100176203093 C23.071713796619914 -7.0473441990103645, 23.168375378955204 -6.808588221817636, 23.408056596895683 -6.216570979583546 M23.408056596895683 -6.216570979583546 C23.54555589318876 -5.802445006686566, 23.683055189481834 -5.3883190337895845, 23.77164635465989 -5.121496559358589 M23.408056596895683 -6.216570979583546 C23.528778695505224 -5.852975253025932, 23.649500794114765 -5.489379526468317, 23.77164635465989 -5.121496559358589 M23.77164635465989 -5.121496559358589 C23.87996185754791 -4.708442602610658, 23.988277360435934 -4.295388645862727, 24.064327419272825 -4.005376811213661 M23.77164635465989 -5.121496559358589 C23.856140155572323 -4.79928507663452, 23.940633956484756 -4.477073593910451, 24.064327419272825 -4.005376811213661 M24.064327419272825 -4.005376811213661 C24.149759174629327 -3.566702803465902, 24.23519092998583 -3.1280287957181434, 24.2848971014601 -2.872798110600833 M24.064327419272825 -4.005376811213661 C24.13794487448317 -3.6273667377631904, 24.21156232969352 -3.24935666431272, 24.2848971014601 -2.872798110600833 M24.2848971014601 -2.872798110600833 C24.321731259847073 -2.5871196518787447, 24.35856541823405 -2.301441193156656, 24.432449033085568 -1.728414466338275 M24.2848971014601 -2.872798110600833 C24.34133506805442 -2.4350763866323772, 24.39777303464874 -1.997354662663922, 24.432449033085568 -1.728414466338275 M24.432449033085568 -1.728414466338275 C24.460130087582208 -1.2972596988080776, 24.48781114207885 -0.86610493127788, 24.506376891612383 -0.576928396289793 M24.432449033085568 -1.728414466338275 C24.449905439128322 -1.4565168516650568, 24.467361845171073 -1.1846192369918387, 24.506376891612383 -0.576928396289793 M24.506376891612383 -0.576928396289793 C24.506376891612383 -0.16413106912378794, 24.506376891612383 0.2486662580422171, 24.506376891612383 0.5769283962897886 M24.506376891612383 -0.576928396289793 C24.506376891612383 -0.28441691515369105, 24.506376891612383 0.008094565982410873, 24.506376891612383 0.5769283962897886 M24.506376891612383 0.5769283962897886 C24.481964546315837 0.9571703795739264, 24.457552201019293 1.337412362858064, 24.432449033085568 1.7284144663382628 M24.506376891612383 0.5769283962897886 C24.481143271739903 0.9699623940150419, 24.45590965186742 1.3629963917402952, 24.432449033085568 1.7284144663382628 M24.432449033085568 1.7284144663382628 C24.394207146212167 2.0250109892136297, 24.35596525933877 2.3216075120889963, 24.284897101460103 2.8727981106008205 M24.432449033085568 1.7284144663382628 C24.397340328073074 2.0007106494171762, 24.362231623060584 2.2730068324960895, 24.284897101460103 2.8727981106008205 M24.284897101460103 2.8727981106008205 C24.23308582243191 3.138838078092884, 24.18127454340372 3.404878045584948, 24.064327419272825 4.005376811213657 M24.284897101460103 2.8727981106008205 C24.214147256292698 3.2360836125503836, 24.14339741112529 3.5993691144999467, 24.064327419272825 4.005376811213657 M24.064327419272825 4.005376811213657 C24.00166723340325 4.244327257030694, 23.93900704753367 4.483277702847731, 23.771646354659893 5.121496559358577 M24.064327419272825 4.005376811213657 C23.97157133405815 4.359095964878835, 23.87881524884348 4.712815118544015, 23.771646354659893 5.121496559358577 M23.771646354659893 5.121496559358577 C23.637765788065266 5.524723494970107, 23.50388522147064 5.927950430581637, 23.408056596895687 6.216570979583534 M23.771646354659893 5.121496559358577 C23.645482954033817 5.501480620636248, 23.519319553407744 5.881464681913919, 23.408056596895687 6.216570979583534 M23.408056596895687 6.216570979583534 C23.279134269858805 6.535011619908265, 23.15021194282192 6.853452260232996, 22.975052214284624 7.286100176203088 M23.408056596895687 6.216570979583534 C23.25141842693605 6.603470287776838, 23.09478025697641 6.990369595970142, 22.975052214284624 7.286100176203088 M22.975052214284624 7.286100176203088 C22.83984503701045 7.5668607727830635, 22.704637859736273 7.847621369363038, 22.474412514714004 8.325689224335031 M22.975052214284624 7.286100176203088 C22.782204951292606 7.68655164407643, 22.589357688300584 8.087003111949771, 22.474412514714004 8.325689224335031 M22.474412514714004 8.325689224335031 C22.346450706334494 8.552898372651017, 22.218488897954984 8.780107520967002, 21.90819473409623 9.33106622958945 M22.474412514714004 8.325689224335031 C22.266517822756665 8.694827301525605, 22.05862313079933 9.063965378716176, 21.90819473409623 9.33106622958945 M21.90819473409623 9.33106622958945 C21.751380465957535 9.571975055977513, 21.59456619781884 9.812883882365576, 21.27872558274521 10.298099882199049 M21.90819473409623 9.33106622958945 C21.750014171250978 9.574074051548285, 21.59183360840572 9.81708187350712, 21.27872558274521 10.298099882199049 M21.27872558274521 10.298099882199049 C21.03138606935977 10.62951229704232, 20.78404655597433 10.960924711885589, 20.58859168442454 11.2228164334572 M21.27872558274521 10.298099882199049 C21.134519070718607 10.491323470831185, 20.990312558692008 10.684547059463322, 20.58859168442454 11.2228164334572 M20.58859168442454 11.2228164334572 C20.376251401038953 11.472243412826316, 20.163911117653367 11.721670392195431, 19.840628947355682 12.101416024703695 M20.58859168442454 11.2228164334572 C20.410275981933566 11.432276204054006, 20.231960279442593 11.641735974650812, 19.840628947355682 12.101416024703695 M19.840628947355682 12.101416024703695 C19.630121787940368 12.318781949759215, 19.419614628525053 12.536147874814736, 19.03791091086276 12.930288301759093 M19.840628947355682 12.101416024703695 C19.543913774246995 12.407798801707179, 19.247198601138304 12.714181578710662, 19.03791091086276 12.930288301759093 M19.03791091086276 12.930288301759093 C18.728208154979452 13.211552150366426, 18.41850539909614 13.492815998973759, 18.183736115540203 13.706027250644409 M19.03791091086276 12.930288301759093 C18.859083668602345 13.092694471670448, 18.680256426341934 13.255100641581805, 18.183736115540203 13.706027250644409 M18.183736115540203 13.706027250644409 C17.84178553609836 13.9787237380622, 17.499834956656514 14.25142022547999, 17.281614548841894 14.425445193623217 M18.183736115540203 13.706027250644409 C17.98594000350169 13.863764386419527, 17.788143891463175 14.021501522194646, 17.281614548841894 14.425445193623217 M17.281614548841894 14.425445193623217 C16.98190792930191 14.634507557323854, 16.68220130976193 14.843569921024491, 16.335253221789884 15.085585888053126 M17.281614548841894 14.425445193623217 C17.008617029707878 14.615876445098973, 16.735619510573862 14.806307696574729, 16.335253221789884 15.085585888053126 M16.335253221789884 15.085585888053126 C16.04322299344585 15.262616328635394, 15.751192765101809 15.439646769217664, 15.348540936070881 15.68373667422101 M16.335253221789884 15.085585888053126 C16.13630113135855 15.20619181444486, 15.937349040927215 15.326797740836597, 15.348540936070881 15.68373667422101 M15.348540936070881 15.68373667422101 C15.067680548149598 15.830261358699877, 14.786820160228316 15.976786043178747, 14.325532304116049 16.217439622243543 M15.348540936070881 15.68373667422101 C14.953489037480711 15.889834996672683, 14.558437138890541 16.095933319124356, 14.325532304116049 16.217439622243543 M14.325532304116049 16.217439622243543 C14.080978935797473 16.325696143980256, 13.836425567478898 16.43395266571697, 13.270431087828742 16.68450163222839 M14.325532304116049 16.217439622243543 C14.04077029235296 16.343495317686113, 13.75600828058987 16.46955101312868, 13.270431087828742 16.68450163222839 M13.270431087828742 16.68450163222839 C12.871799200620314 16.83120185163386, 12.473167313411889 16.97790207103933, 12.187572924425183 17.08300344619203 M13.270431087828742 16.68450163222839 C12.855060334160298 16.83736190922353, 12.439689580491853 16.990222186218677, 12.187572924425183 17.08300344619203 M12.187572924425183 17.08300344619203 C11.83799551717973 17.186756185693227, 11.488418109934274 17.290508925194423, 11.08140751037115 17.411307534702527 M12.187572924425183 17.08300344619203 C11.834126608726057 17.18790445741396, 11.480680293026932 17.292805468635894, 11.08140751037115 17.411307534702527 M11.08140751037115 17.411307534702527 C10.726475726046385 17.492318398328305, 10.371543941721619 17.573329261954086, 9.956480316624706 17.668064825839174 M11.08140751037115 17.411307534702527 C10.693769809661564 17.499783310317092, 10.30613210895198 17.588259085931654, 9.956480316624706 17.668064825839174 M9.956480316624706 17.668064825839174 C9.590747220720376 17.727193716482468, 9.225014124816047 17.78632260712576, 8.817413910321118 17.85222024881843 M9.956480316624706 17.668064825839174 C9.58408751029033 17.728270406817973, 9.211694703955953 17.78847598779677, 8.817413910321118 17.85222024881843 M8.817413910321118 17.85222024881843 C8.539483226490606 17.879031887627008, 8.261552542660093 17.905843526435586, 7.668888959652831 17.963017069506055 M8.817413910321118 17.85222024881843 C8.423028630742833 17.890266122421654, 8.028643351164547 17.928311996024878, 7.668888959652831 17.963017069506055 M7.668888959652831 17.963017069506055 C7.435222434347842 17.970510300168286, 7.201555909042853 17.978003530830517, 6.5156250000000036 18 M7.668888959652831 17.963017069506055 C7.271734567880517 17.975753037836064, 6.8745801761082035 17.988489006166077, 6.5156250000000036 18 M6.5156250000000036 18 C6.515625000000003 18, 6.515625000000002 18, 6.515625 18 M6.5156250000000036 18 C6.515625000000003 18, 6.515625000000001 18, 6.515625 18 M6.515625 18 C3.043997048948191 18, -0.4276309021036182 18, -6.5156249999999964 18 M6.515625 18 C3.7501395883467397 18, 0.9846541766934793 18, -6.5156249999999964 18 M-6.5156249999999964 18 C-6.909944780205095 17.987354932145713, -7.304264560410192 17.974709864291427, -7.668888959652825 17.963017069506055 M-6.5156249999999964 18 C-6.835785883131945 17.989733063633313, -7.155946766263893 17.979466127266626, -7.668888959652825 17.963017069506055 M-7.668888959652825 17.963017069506055 C-7.983466928020578 17.932670111232976, -8.298044896388332 17.902323152959898, -8.817413910321111 17.85222024881843 M-7.668888959652825 17.963017069506055 C-8.032553645130431 17.927934774668802, -8.396218330608036 17.892852479831554, -8.817413910321111 17.85222024881843 M-8.817413910321111 17.85222024881843 C-9.258029828786189 17.780984884148477, -9.698645747251264 17.709749519478525, -9.9564803166247 17.668064825839174 M-8.817413910321111 17.85222024881843 C-9.261550663564172 17.780415662886053, -9.705687416807235 17.708611076953677, -9.9564803166247 17.668064825839174 M-9.9564803166247 17.668064825839174 C-10.256225825841957 17.599649869382585, -10.555971335059212 17.531234912925992, -11.081407510371127 17.41130753470253 M-9.9564803166247 17.668064825839174 C-10.359305681640398 17.57612256495551, -10.762131046656094 17.48418030407185, -11.081407510371127 17.41130753470253 M-11.081407510371127 17.41130753470253 C-11.394691764313992 17.318326412594892, -11.707976018256858 17.225345290487258, -12.187572924425162 17.083003446192038 M-11.081407510371127 17.41130753470253 C-11.319969216283328 17.340503672623736, -11.558530922195528 17.269699810544942, -12.187572924425162 17.083003446192038 M-12.187572924425162 17.083003446192038 C-12.558077870521693 16.94665420111834, -12.928582816618226 16.810304956044636, -13.270431087828737 16.68450163222839 M-12.187572924425162 17.083003446192038 C-12.41538562312489 16.999166267193036, -12.643198321824615 16.915329088194035, -13.270431087828737 16.68450163222839 M-13.270431087828737 16.68450163222839 C-13.603569923655908 16.537030951820153, -13.936708759483077 16.389560271411913, -14.325532304116043 16.217439622243546 M-13.270431087828737 16.68450163222839 C-13.553593865507365 16.55915387027542, -13.836756643185993 16.433806108322447, -14.325532304116043 16.217439622243546 M-14.325532304116043 16.217439622243546 C-14.71027128438271 16.016721542675505, -15.095010264649376 15.816003463107462, -15.348540936070874 15.683736674221013 M-14.325532304116043 16.217439622243546 C-14.6059752584855 16.071132712581285, -14.886418212854956 15.924825802919026, -15.348540936070874 15.683736674221013 M-15.348540936070874 15.683736674221013 C-15.691109041021713 15.476069875846173, -16.03367714597255 15.268403077471332, -16.335253221789863 15.085585888053139 M-15.348540936070874 15.683736674221013 C-15.570489892590363 15.549189912462053, -15.792438849109853 15.414643150703093, -16.335253221789863 15.085585888053139 M-16.335253221789863 15.085585888053139 C-16.62748897771604 14.881734875401017, -16.91972473364222 14.677883862748898, -17.281614548841887 14.42544519362322 M-16.335253221789863 15.085585888053139 C-16.65601516091649 14.861836244878953, -16.97677710004312 14.638086601704767, -17.281614548841887 14.42544519362322 M-17.281614548841887 14.42544519362322 C-17.56271938910557 14.201271564026893, -17.843824229369257 13.977097934430564, -18.183736115540185 13.706027250644423 M-17.281614548841887 14.42544519362322 C-17.600969109229393 14.170768430095945, -17.9203236696169 13.91609166656867, -18.183736115540185 13.706027250644423 M-18.183736115540185 13.706027250644423 C-18.51891819040428 13.40162375868458, -18.85410026526837 13.09722026672474, -19.03791091086275 12.930288301759106 M-18.183736115540185 13.706027250644423 C-18.491575646868018 13.426455533280155, -18.79941517819585 13.146883815915887, -19.03791091086275 12.930288301759106 M-19.03791091086275 12.930288301759106 C-19.321878690162155 12.637068255444206, -19.60584646946156 12.343848209129304, -19.840628947355682 12.101416024703703 M-19.03791091086275 12.930288301759106 C-19.265227684114393 12.695565070322615, -19.492544457366034 12.460841838886125, -19.840628947355682 12.101416024703703 M-19.840628947355682 12.101416024703703 C-20.106074078604482 11.78960906928301, -20.37151920985328 11.477802113862317, -20.588591684424536 11.222816433457206 M-19.840628947355682 12.101416024703703 C-20.09224821469657 11.805849715743182, -20.343867482037464 11.510283406782662, -20.588591684424536 11.222816433457206 M-20.588591684424536 11.222816433457206 C-20.85364790356921 10.86766524692166, -21.118704122713883 10.512514060386115, -21.278725582745203 10.29809988219906 M-20.588591684424536 11.222816433457206 C-20.82348430881608 10.908081715930841, -21.058376933207626 10.593346998404476, -21.278725582745203 10.29809988219906 M-21.278725582745203 10.29809988219906 C-21.41905830990862 10.082511128662464, -21.559391037072036 9.866922375125869, -21.908194734096224 9.33106622958946 M-21.278725582745203 10.29809988219906 C-21.431872246798633 10.062825480575556, -21.585018910852067 9.827551078952055, -21.908194734096224 9.33106622958946 M-21.908194734096224 9.33106622958946 C-22.102628553911895 8.985829293947527, -22.297062373727567 8.640592358305593, -22.474412514714 8.325689224335036 M-21.908194734096224 9.33106622958946 C-22.06005647383115 9.061420333021456, -22.211918213566072 8.791774436453453, -22.474412514714 8.325689224335036 M-22.474412514714 8.325689224335036 C-22.66006195377325 7.940184191866854, -22.8457113928325 7.554679159398671, -22.975052214284624 7.286100176203095 M-22.474412514714 8.325689224335036 C-22.652837558983194 7.955185802225691, -22.831262603252387 7.584682380116346, -22.975052214284624 7.286100176203095 M-22.975052214284624 7.286100176203095 C-23.066181952349055 7.061007961310322, -23.157311690413486 6.835915746417549, -23.408056596895683 6.2165709795835475 M-22.975052214284624 7.286100176203095 C-23.12618616059255 6.912796406846443, -23.277320106900476 6.539492637489792, -23.408056596895683 6.2165709795835475 M-23.408056596895683 6.2165709795835475 C-23.49644256031782 5.950366540146913, -23.584828523739958 5.684162100710278, -23.77164635465989 5.121496559358584 M-23.408056596895683 6.2165709795835475 C-23.551499344060186 5.784544279622123, -23.69494209122469 5.352517579660699, -23.77164635465989 5.121496559358584 M-23.77164635465989 5.121496559358584 C-23.8609251837863 4.781037690210278, -23.950204012912707 4.4405788210619725, -24.06432741927282 4.005376811213663 M-23.77164635465989 5.121496559358584 C-23.846782546017472 4.834969697480796, -23.921918737375055 4.548442835603009, -24.06432741927282 4.005376811213663 M-24.06432741927282 4.005376811213663 C-24.12180247980199 3.710254522754726, -24.17927754033116 3.415132234295789, -24.2848971014601 2.8727981106008347 M-24.06432741927282 4.005376811213663 C-24.15030410177474 3.563904717744597, -24.23628078427666 3.1224326242755307, -24.2848971014601 2.8727981106008347 M-24.2848971014601 2.8727981106008347 C-24.327656126655654 2.5411675549086845, -24.37041515185121 2.2095369992165343, -24.432449033085565 1.7284144663382852 M-24.2848971014601 2.8727981106008347 C-24.326325931159612 2.5514842884991737, -24.367754760859125 2.230170466397513, -24.432449033085565 1.7284144663382852 M-24.432449033085565 1.7284144663382852 C-24.461521524233863 1.275586949811107, -24.490594015382158 0.8227594332839288, -24.506376891612383 0.5769283962897952 M-24.432449033085565 1.7284144663382852 C-24.455779966250116 1.3650163499101404, -24.479110899414664 1.0016182334819956, -24.506376891612383 0.5769283962897952 M-24.506376891612383 0.5769283962897952 C-24.506376891612383 0.17315821219819721, -24.506376891612383 -0.23061197189340077, -24.506376891612383 -0.5769283962897864 M-24.506376891612383 0.5769283962897952 C-24.506376891612383 0.1685459243739839, -24.506376891612383 -0.23983654754182737, -24.506376891612383 -0.5769283962897864 M-24.506376891612383 -0.5769283962897864 C-24.477749827646544 -1.022818024907851, -24.449122763680705 -1.4687076535259154, -24.432449033085568 -1.7284144663382603 M-24.506376891612383 -0.5769283962897864 C-24.477923171976126 -1.020118047053572, -24.44946945233987 -1.4633076978173576, -24.432449033085568 -1.7284144663382603 M-24.432449033085568 -1.7284144663382603 C-24.389151118802125 -2.0642245393803993, -24.34585320451868 -2.4000346124225382, -24.284897101460103 -2.8727981106008262 M-24.432449033085568 -1.7284144663382603 C-24.382563518073614 -2.1153166697618317, -24.33267800306166 -2.502218873185403, -24.284897101460103 -2.8727981106008262 M-24.284897101460103 -2.8727981106008262 C-24.221718070137783 -3.1972090835479388, -24.158539038815462 -3.521620056495051, -24.064327419272825 -4.005376811213655 M-24.284897101460103 -2.8727981106008262 C-24.236323040064484 -3.122215649735819, -24.187748978668864 -3.371633188870812, -24.064327419272825 -4.005376811213655 M-24.064327419272825 -4.005376811213655 C-23.962476225062833 -4.393779557323162, -23.860625030852837 -4.782182303432668, -23.771646354659893 -5.121496559358575 M-24.064327419272825 -4.005376811213655 C-23.964592528941214 -4.385709173422984, -23.864857638609607 -4.766041535632313, -23.771646354659893 -5.121496559358575 M-23.771646354659893 -5.121496559358575 C-23.68412760395625 -5.385089092258689, -23.596608853252604 -5.648681625158805, -23.40805659689569 -6.2165709795835244 M-23.771646354659893 -5.121496559358575 C-23.66949647278913 -5.429155728179877, -23.567346590918365 -5.73681489700118, -23.40805659689569 -6.2165709795835244 M-23.40805659689569 -6.2165709795835244 C-23.300786609329943 -6.481529922795046, -23.193516621764193 -6.746488866006567, -22.975052214284624 -7.286100176203086 M-23.40805659689569 -6.2165709795835244 C-23.261841357969146 -6.57772544661142, -23.115626119042606 -6.938879913639315, -22.975052214284624 -7.286100176203086 M-22.975052214284624 -7.286100176203086 C-22.851675912820248 -7.542293706023823, -22.728299611355872 -7.7984872358445605, -22.474412514714004 -8.32568922433503 M-22.975052214284624 -7.286100176203086 C-22.778242346997303 -7.694780076681775, -22.581432479709978 -8.103459977160464, -22.474412514714004 -8.32568922433503 M-22.474412514714004 -8.32568922433503 C-22.359506839770035 -8.52971588565934, -22.244601164826065 -8.733742546983649, -21.908194734096227 -9.331066229589455 M-22.474412514714004 -8.32568922433503 C-22.342307967034287 -8.560254225776372, -22.210203419354574 -8.794819227217715, -21.908194734096227 -9.331066229589455 M-21.908194734096227 -9.331066229589455 C-21.686811324915787 -9.671170595859728, -21.46542791573535 -10.011274962129999, -21.278725582745206 -10.298099882199054 M-21.908194734096227 -9.331066229589455 C-21.718264767278445 -9.622849661958803, -21.52833480046066 -9.914633094328149, -21.278725582745206 -10.298099882199054 M-21.278725582745206 -10.298099882199054 C-21.004351218313346 -10.665736534518931, -20.72997685388149 -11.033373186838807, -20.588591684424543 -11.2228164334572 M-21.278725582745206 -10.298099882199054 C-21.088181634677493 -10.553411413699017, -20.897637686609777 -10.80872294519898, -20.588591684424543 -11.2228164334572 M-20.588591684424543 -11.2228164334572 C-20.40769963016401 -11.4353025334411, -20.226807575903475 -11.647788633424998, -19.840628947355686 -12.101416024703695 M-20.588591684424543 -11.2228164334572 C-20.305121396532027 -11.55579676353207, -20.02165110863951 -11.88877709360694, -19.840628947355686 -12.101416024703695 M-19.840628947355686 -12.101416024703695 C-19.57519055177768 -12.375502961035552, -19.30975215619968 -12.649589897367411, -19.037910910862763 -12.930288301759086 M-19.840628947355686 -12.101416024703695 C-19.525979129960927 -12.426317794394222, -19.211329312566168 -12.751219564084751, -19.037910910862763 -12.930288301759086 M-19.037910910862763 -12.930288301759086 C-18.722612712590422 -13.216633783096848, -18.40731451431808 -13.50297926443461, -18.183736115540206 -13.706027250644407 M-19.037910910862763 -12.930288301759086 C-18.74902960151654 -13.192642663526726, -18.46014829217032 -13.454997025294364, -18.183736115540206 -13.706027250644407 M-18.183736115540206 -13.706027250644407 C-17.982537734985144 -13.866477605023306, -17.781339354430077 -14.026927959402204, -17.281614548841894 -14.425445193623215 M-18.183736115540206 -13.706027250644407 C-17.988526068475934 -13.861702068420646, -17.793316021411663 -14.017376886196885, -17.281614548841894 -14.425445193623215 M-17.281614548841894 -14.425445193623215 C-17.016452403195395 -14.610410827741932, -16.751290257548895 -14.795376461860648, -16.335253221789888 -15.085585888053124 M-17.281614548841894 -14.425445193623215 C-16.998451290839117 -14.622967624466076, -16.71528803283634 -14.820490055308937, -16.335253221789888 -15.085585888053124 M-16.335253221789888 -15.085585888053124 C-16.092426311600587 -15.232788988019198, -15.849599401411288 -15.379992087985272, -15.348540936070883 -15.683736674221008 M-16.335253221789888 -15.085585888053124 C-16.094297989731604 -15.231654365736976, -15.85334275767332 -15.377722843420825, -15.348540936070883 -15.683736674221008 M-15.348540936070883 -15.683736674221008 C-15.050065013820536 -15.839451371676061, -14.751589091570189 -15.995166069131116, -14.325532304116052 -16.217439622243543 M-15.348540936070883 -15.683736674221008 C-14.955575556697966 -15.888746460933522, -14.562610177325048 -16.093756247646034, -14.325532304116052 -16.217439622243543 M-14.325532304116052 -16.217439622243543 C-14.09991204171745 -16.317315019620114, -13.874291779318849 -16.417190416996686, -13.270431087828744 -16.684501632228386 M-14.325532304116052 -16.217439622243543 C-13.935533393792367 -16.390080570937204, -13.545534483468682 -16.56272151963087, -13.270431087828744 -16.684501632228386 M-13.270431087828744 -16.684501632228386 C-13.051371537455777 -16.765117571729924, -12.832311987082813 -16.84573351123146, -12.187572924425186 -17.08300344619203 M-13.270431087828744 -16.684501632228386 C-12.90782912830094 -16.817942505190388, -12.545227168773133 -16.951383378152393, -12.187572924425186 -17.08300344619203 M-12.187572924425186 -17.08300344619203 C-11.844193275428562 -17.18491672357767, -11.500813626431936 -17.28683000096331, -11.08140751037115 -17.411307534702523 M-12.187572924425186 -17.08300344619203 C-11.958923449011449 -17.15086541028924, -11.730273973597713 -17.218727374386447, -11.08140751037115 -17.411307534702523 M-11.08140751037115 -17.411307534702523 C-10.794957279775405 -17.476687930573558, -10.50850704917966 -17.54206832644459, -9.95648031662471 -17.668064825839174 M-11.08140751037115 -17.411307534702523 C-10.855024992257377 -17.462977867178, -10.628642474143604 -17.514648199653482, -9.95648031662471 -17.668064825839174 M-9.95648031662471 -17.668064825839174 C-9.5343189621408 -17.736316599721935, -9.11215760765689 -17.804568373604692, -8.81741391032112 -17.85222024881843 M-9.95648031662471 -17.668064825839174 C-9.650878256752453 -17.71747219689995, -9.345276196880196 -17.76687956796073, -8.81741391032112 -17.85222024881843 M-8.81741391032112 -17.85222024881843 C-8.420059981534399 -17.890552504440468, -8.022706052747678 -17.928884760062505, -7.668888959652834 -17.963017069506055 M-8.81741391032112 -17.85222024881843 C-8.5326939116378 -17.879686844665514, -8.247973912954478 -17.907153440512594, -7.668888959652834 -17.963017069506055 M-7.668888959652834 -17.963017069506055 C-7.244213132454563 -17.976635596702952, -6.8195373052562935 -17.99025412389985, -6.515625000000005 -18 M-7.668888959652834 -17.963017069506055 C-7.308592861824497 -17.9745710640896, -6.9482967639961615 -17.986125058673142, -6.515625000000005 -18 M-6.515625000000005 -18 C-6.5156250000000036 -18, -6.515625000000002 -18, -6.515625 -18 M-6.515625000000005 -18 C-6.5156250000000036 -18, -6.515625000000002 -18, -6.515625 -18" stroke="#374151" stroke-width="2" fill="none" stroke-dasharray="0 0" style="fill:#6b7280 !important;stroke:#374151 !important;stroke-width:2px !important"/></g><g class="label" style="color:#ffffff !important" transform="translate(-12.515625, -10.5)"><rect/><foreignObject width="25.03125" height="21"><div style="color: rgb(255, 255, 255) !important; display: table-cell; white-space: nowrap; line-height: 1.5; max-width: 200px; text-align: center;" xmlns="http://www.w3.org/1999/xhtml"><span style="color:#ffffff !important" class="nodeLabel"><p>END</p></span></div></foreignObject></g></g></g></g></g></svg>